<?xml version="1.0" encoding="UTF-8"?>
<svg xmlns="http://www.w3.org/2000/svg" xmlns:xlink="http://www.w3.org/1999/xlink" viewBox="0 0 50 50" width="50px" height="50px">
<g id="surface75090595">
<path style=" stroke:none;fill-rule:nonzero;fill:rgb(80.000001%,80.000001%,80.000001%);fill-opacity:1;" d="M 25 50 C 11.191406 50 0 38.808594 0 25 C 0 11.191406 11.191406 0 25 0 C 38.808594 0 50 11.191406 50 25 C 50 38.808594 38.808594 50 25 50 Z M 25 50 "/>
<path style=" stroke:none;fill-rule:nonzero;fill:rgb(0%,0%,0%);fill-opacity:1;" d="M 25.929688 8.40625 C 18.832031 8.566406 18.027344 13.753906 19.539062 19.734375 C 19.300781 19.898438 18.820312 20.464844 18.898438 21.421875 C 19.136719 23.175781 19.855469 23.65625 20.253906 23.65625 C 20.414062 24.851562 20.976562 26.109375 21.535156 26.910156 C 21.933594 27.46875 22.082031 28.183594 22.082031 28.902344 C 22.082031 29.542969 22.089844 29.136719 22.011719 29.855469 C 21.929688 30.085938 21.816406 30.296875 21.675781 30.496094 C 21.839844 31.109375 22.78125 34.035156 26 34.035156 C 29.296875 34.035156 30.179688 30.878906 30.273438 30.496094 C 30.125 30.300781 30.007812 30.085938 29.917969 29.855469 C 29.839844 28.976562 29.824219 29.382812 29.824219 28.667969 C 29.824219 28.027344 30.074219 27.480469 30.394531 27.003906 C 30.953125 26.207031 31.492188 24.851562 31.652344 23.65625 C 32.132812 23.65625 32.847656 23.175781 33.007812 21.421875 C 33.085938 20.464844 32.710938 19.898438 32.390625 19.734375 C 33.1875 17.503906 34.691406 10.574219 29.585938 9.855469 C 29.027344 8.898438 27.683594 8.40625 25.929688 8.40625 Z M 31.535156 31.5625 C 30.894531 33.261719 29.207031 35.554688 26 35.554688 C 22.789062 35.554688 21.109375 33.304688 20.441406 31.585938 C 17.285156 33.53125 10.847656 34.128906 10.847656 40.875 L 41.152344 40.875 C 41.152344 33.957031 34.746094 33.480469 31.535156 31.5625 Z M 31.535156 31.5625 "/>
</g>
</svg>
